<svg width="38" height="38" viewBox="0 0 38 38" fill="none" xmlns="http://www.w3.org/2000/svg">
<rect width="37" height="37" transform="translate(0.657471 0.338989)" fill="white"/>
<path d="M29.1646 9.21098L29.1423 9.20004L29.0867 9.17816C29.0978 9.20004 29.1312 9.21098 29.1646 9.21098Z" fill="#010202"/>
<path d="M29.4985 11.7705L29.5431 11.7486L29.5542 11.7377L29.5653 11.7267C29.5431 11.7377 29.5208 11.7596 29.4985 11.7705Z" fill="#010202"/>
<path d="M29.2315 9.26569L29.187 9.22194L29.1536 9.211C29.1758 9.23287 29.1981 9.25475 29.2315 9.26569Z" fill="#010202"/>
<path d="M18.8017 34.2485C18.7683 34.2594 18.7349 34.2813 18.7126 34.3141L18.7349 34.2922C18.7683 34.2703 18.7906 34.2594 18.8017 34.2485Z" fill="#010202"/>
<path d="M24.868 33.0671C24.868 33.0343 24.8457 33.0343 24.8569 33.1656C24.8569 33.1546 24.8569 33.1437 24.868 33.1327C24.8569 33.1218 24.8569 33.0999 24.868 33.0671Z" fill="#010202"/>
<path d="M24.2336 34.2485C24.2002 34.2594 24.1668 34.2813 24.1445 34.3141L24.1668 34.2922C24.2002 34.2703 24.2224 34.2594 24.2336 34.2485Z" fill="#010202"/>
<path d="M14.5385 34.5219C14.5163 34.5 14.4829 34.4891 14.4495 34.4781C14.4717 34.4891 14.5051 34.5 14.5162 34.511L14.5385 34.5219Z" fill="#010202"/>
<path d="M13.5922 33.625C13.5922 33.5922 13.5811 33.5484 13.5588 33.5156C13.57 33.5484 13.5811 33.5813 13.5922 33.625Z" fill="#010202"/>
<path d="M20.026 17.4693C18.7126 18.0271 17.2099 18.6506 15.2731 18.6506C14.4605 18.6506 13.6591 18.5412 12.8799 18.3225L14.2156 31.842C14.2601 32.4108 14.5273 32.9359 14.9503 33.3187C15.3732 33.7015 15.9298 33.9203 16.5086 33.9203C16.5086 33.9203 18.412 34.0187 19.0465 34.0187C19.7255 34.0187 21.7736 33.9203 21.7736 33.9203C22.3524 33.9203 22.909 33.7125 23.3319 33.3187C23.7549 32.9359 24.0221 32.4108 24.0666 31.842L25.5025 16.9114C24.8569 16.6927 24.2113 16.5505 23.4878 16.5505C22.2188 16.5505 21.2059 16.9771 20.026 17.4693Z" fill="#FFDD06"/>
<path d="M8.72803 11.7158L8.75091 11.7383L8.76235 11.7495C8.76235 11.7271 8.75091 11.7158 8.72803 11.7158Z" fill="#010202"/>
<path d="M31.6914 10.4579L31.4911 9.46257C31.313 8.56564 30.9011 7.71246 29.9661 7.39525C29.6656 7.29681 29.3205 7.24212 29.0979 7.03429C28.8641 6.81553 28.7973 6.48738 28.7417 6.18111C28.6415 5.61233 28.5525 5.04354 28.4523 4.47476C28.3632 3.98254 28.2965 3.43563 28.0738 2.99811C27.7733 2.39651 27.1611 2.04649 26.5489 1.81678C26.2372 1.7074 25.9144 1.60896 25.5916 1.52145C24.0667 1.12768 22.4638 0.985483 20.8943 0.897978C19.0132 0.799534 17.1209 0.821411 15.2397 0.985483C13.8372 1.1058 12.3679 1.25894 11.0433 1.74022C10.5536 1.91523 10.0527 2.12305 9.68534 2.49495C9.22897 2.94342 9.08427 3.6544 9.4182 4.21224C9.65195 4.61696 10.0527 4.90135 10.4756 5.0873C11.0211 5.32794 11.5999 5.51389 12.1898 5.63421C13.8372 5.99517 15.5291 6.12642 17.2099 6.19205C19.0688 6.26862 20.9277 6.20299 22.7866 6.01704C23.243 5.96235 23.6993 5.90766 24.1557 5.84203C24.69 5.76546 25.0351 5.06542 24.8792 4.59508C24.69 4.01536 24.178 3.79659 23.6103 3.8841C23.5212 3.89504 23.4433 3.90598 23.3543 3.91691L23.2986 3.92785C23.0983 3.94973 22.909 3.9716 22.7087 3.99348C22.308 4.03723 21.9072 4.07005 21.4954 4.10286C20.5938 4.16849 19.681 4.19037 18.7683 4.19037C17.8778 4.19037 16.9873 4.16849 16.0968 4.10286C15.685 4.08099 15.2843 4.04817 14.8835 4.00442C14.6943 3.98254 14.5162 3.96067 14.3381 3.93879L14.16 3.91691H14.1266L13.9485 3.89504C13.5812 3.84035 13.2139 3.77472 12.8466 3.69815C12.8132 3.68721 12.7798 3.66534 12.7575 3.64346C12.7352 3.62158 12.7241 3.57783 12.7241 3.54502C12.7241 3.5122 12.7352 3.46845 12.7575 3.44657C12.7798 3.4247 12.8132 3.40282 12.8466 3.39188H12.8577C13.1694 3.32625 13.4922 3.27156 13.815 3.21687C13.9263 3.19499 14.0265 3.18406 14.1378 3.17312C14.3381 3.16218 14.5385 3.12936 14.7388 3.09655C16.4753 2.92154 18.2229 2.85591 19.9704 2.9106C20.8164 2.93248 21.6623 2.98717 22.5083 3.06374C22.6864 3.08561 22.8756 3.09655 23.0537 3.11843C23.1205 3.12936 23.1873 3.1403 23.2652 3.1403L23.4099 3.16218C23.8218 3.21687 24.2225 3.29344 24.6343 3.38094C25.2354 3.5122 26.0035 3.55595 26.2706 4.19037C26.3597 4.39819 26.393 4.61696 26.4376 4.83572L26.4932 5.10917V5.12011C26.6379 5.76546 26.7715 6.41082 26.9162 7.05617C26.9273 7.09992 26.9273 7.15461 26.9162 7.19836C26.9051 7.24212 26.8828 7.29681 26.8605 7.32962C26.8272 7.37338 26.7938 7.40619 26.7492 7.42807C26.7047 7.44994 26.6602 7.47182 26.6157 7.47182L26.5266 7.48276L26.4376 7.4937C26.1704 7.52651 25.8921 7.55932 25.625 7.59214C25.0907 7.64683 24.5564 7.70152 24.0221 7.74527C22.9536 7.83278 21.8961 7.88747 20.8275 7.92028C20.2821 7.93122 19.7367 7.94216 19.1913 7.94216C17.0207 7.94216 14.8613 7.82184 12.713 7.57026C12.4792 7.54839 12.2455 7.51557 12.0117 7.48276C12.1898 7.50463 11.8782 7.46088 11.8225 7.46088C11.6778 7.439 11.522 7.41713 11.3773 7.39525C10.8764 7.31868 10.3866 7.23118 9.8857 7.15461C9.28462 7.05617 8.71694 7.11086 8.17152 7.39525C7.72628 7.63589 7.37009 7.99685 7.13633 8.44532C6.90258 8.91566 6.8358 9.44069 6.72448 9.94385C6.62431 10.4579 6.45734 11.0048 6.52413 11.5299C6.6577 12.6565 7.45913 13.5753 8.61676 13.7831C9.70761 13.98 10.7984 14.1332 11.9004 14.2644C16.2081 14.7785 20.5715 14.8441 24.8904 14.4504C25.2465 14.4176 25.5916 14.3847 25.9478 14.341C26.0591 14.3301 26.1704 14.341 26.2706 14.3738C26.3708 14.4066 26.471 14.4722 26.5489 14.5488C26.6268 14.6254 26.6825 14.7129 26.727 14.8223C26.7604 14.9207 26.7826 15.0301 26.7715 15.1395L26.6602 16.1895C26.4376 18.3006 26.2149 20.4117 26.0035 22.5337C25.7697 24.7541 25.5471 26.9746 25.3133 29.195C25.2465 29.8185 25.1798 30.442 25.113 31.0655C25.0462 31.678 25.0462 32.3124 24.9237 32.9249C24.7345 33.8766 24.0778 34.4672 23.1205 34.686C22.2412 34.8829 21.3395 34.9813 20.4379 34.9923C19.4361 34.9923 18.4343 34.9594 17.4326 34.9594C16.364 34.9704 15.0505 34.8719 14.2268 34.0844C13.5033 33.3953 13.4031 32.3233 13.3029 31.3936C13.1694 30.1685 13.0358 28.9325 12.9133 27.7074L12.1898 20.8711L11.7223 16.4411C11.7112 16.3646 11.7112 16.2989 11.7001 16.2224C11.6444 15.6973 11.266 15.1832 10.6649 15.2051C10.1528 15.227 9.57403 15.6536 9.62969 16.2224L9.97475 19.5038L10.6983 26.2855C10.8986 28.2106 11.1101 30.1357 11.3105 32.0718C11.355 32.4437 11.3884 32.8156 11.4329 33.1765C11.6555 35.2001 13.225 36.283 15.1729 36.5892C16.3083 36.7642 17.4659 36.808 18.6236 36.8189C20.104 36.8408 21.5956 36.8955 23.0426 36.633C25.1909 36.2501 26.8049 34.8391 27.0386 32.6406C27.1054 32.0061 27.1722 31.3717 27.239 30.7482C27.4616 28.6591 27.6731 26.5699 27.8957 24.4697L28.6081 17.6334L28.9309 14.5051C28.9421 14.3519 29.0088 14.1988 29.1202 14.0894C29.2315 13.98 29.365 13.8925 29.5209 13.8706C30.1331 13.7503 30.723 13.5534 31.1571 13.094C31.8027 12.3721 31.9363 11.4205 31.6914 10.4579ZM8.56111 11.1361C8.57224 11.1361 8.54998 11.2127 8.54998 11.2455C8.53884 11.1908 8.53885 11.1361 8.56111 11.1361ZM8.61676 11.5846C8.61676 11.5846 8.63903 11.5955 8.65016 11.6283C8.62789 11.6064 8.61676 11.5846 8.61676 11.5846ZM8.67242 11.6611C8.69468 11.7049 8.70581 11.7268 8.67242 11.6611V11.6611ZM29.4318 11.6174C29.2092 11.8252 28.8753 11.9237 28.5525 11.9674C24.8681 12.5034 21.1169 12.7768 17.388 12.6565C14.7166 12.569 12.0785 12.2737 9.42933 11.9127C9.17332 11.8799 8.89504 11.8252 8.71694 11.6393C8.38301 11.2892 8.54998 10.5783 8.63902 10.1407C8.71694 9.74696 8.87278 9.22193 9.35141 9.16724C10.0861 9.07973 10.9543 9.386 11.6778 9.49538C12.5572 9.62664 13.4476 9.73602 14.327 9.81259C18.1115 10.1517 21.974 10.097 25.7363 9.60476C26.4264 9.51726 27.1054 9.40788 27.7956 9.28756C28.4078 9.17817 29.0756 8.98129 29.443 9.59383C29.699 10.0204 29.7324 10.5783 29.6878 11.0595C29.6878 11.2783 29.5877 11.4752 29.4318 11.6174Z" fill="#010202"/>
</svg>
