<svg xmlns="http://www.w3.org/2000/svg" width="722" height="610" fill="none" viewBox="0 0 722 610"><path fill="#42a9a3" d="M458.032 116.188h74.257v71.537q.02.629 0 1.258v40.335c.239 8.104-4.124 16.26-13.086 22.444l-64.709 44.647 33.092 22.832 94.85-65.444a44 44 0 0 1 2.048-1.328v-48.376h74.258v70.505q.048 1.014 0 2.028v39.565c.39 8.23-3.967 16.547-13.072 22.829l-64.709 44.646 66.736 46.045v-6.939h74.293v70.338q.02.647 0 1.292v40.302c.245 8.109-4.117 16.272-13.086 22.46-17.462 12.048-45.772 12.048-63.234 0L361.091 360.815l-30.366 20.951q-.707.536-1.458 1.054l-64.708 44.646 66.735 46.045v-6.939h74.293v70.338q.02.646 0 1.292v40.302c.245 8.109-4.117 16.272-13.086 22.46-17.461 12.048-45.772 12.048-63.234 0L13.099 382.82C4.239 376.707-.125 368.667.006 360.655H0V247.481h74.293v7.894l65.273-45.036q1.008-.695 2.063-1.337v-49.014h74.258v71.537q.018.629 0 1.258v40.335c.238 8.104-4.124 16.26-13.087 22.444l-64.709 44.646 33.092 22.833 94.851-65.444q1-.69 2.048-1.328v-48.376h48.321v-44.212h74.293v7.895l65.273-45.036q1.008-.696 2.063-1.338z"/><path fill="#7acdc8" d="M496.012 18.647c5.148 0 9.321-4.175 9.321-9.324S501.16 0 496.012 0s-9.321 4.174-9.321 9.323c0 5.15 4.173 9.324 9.321 9.324M505.335 42.448a9.4 9.4 0 0 1-.123 1.516c-.513 4.156-4.028 33.585-1.114 44.386 5.5 1.505 10.655 3.793 15.105 6.863 17.461 12.048 17.461 31.581 0 43.629l-94.851 65.444 63.234 43.628 94.85-65.443c17.462-12.048 45.773-12.048 63.234 0 17.462 12.048 17.462 31.581 0 43.629l-94.85 65.443 158.084 109.073c17.461 12.047 17.461 31.581 0 43.628-17.462 12.048-45.772 12.048-63.234 0L361.072 247.882l-29.999 20.698q-.87.674-1.805 1.32l-94.851 65.443 158.084 109.072c17.462 12.048 17.462 31.581 0 43.629-17.461 12.048-45.772 12.048-63.233 0L13.099 269.9C2.186 262.37-1.907 251.916.821 242.193c1.567-5.581 5.38-10.922 11.442-15.33q.411-.299.836-.592l126.467-87.258c17.462-12.048 45.773-12.048 63.234 0 17.462 12.048 17.462 31.581 0 43.629l-94.85 65.443 63.233 43.629 94.851-65.443a43 43 0 0 1 2.319-1.492l58.897-40.637a40 40 0 0 1 2.252-1.671l126.467-87.258c9.28-6.402 21.623-9.402 33.774-9 2.556-9.992-1.003-30.926-2.443-39.394v-.003l-.002-.007-.002-.012c-.167-.982-.305-1.794-.401-2.402a9.3 9.3 0 0 1-.204-1.947c0-5.15 4.174-9.325 9.322-9.325s9.322 4.175 9.322 9.325"/></svg>