<svg width="38" height="38" viewBox="0 0 38 38" fill="none" xmlns="http://www.w3.org/2000/svg">
<path fill-rule="evenodd" clip-rule="evenodd" d="M19.1728 0.338989C8.93429 0.338989 0.657471 8.81812 0.657471 19.308C0.657471 27.6931 5.96071 34.7909 13.3177 37.303C14.2375 37.4918 14.5745 36.8948 14.5745 36.3926C14.5745 35.9529 14.5441 34.4455 14.5441 32.875C9.39363 34.0058 8.32108 30.6137 8.32108 30.6137C7.49336 28.4153 6.26694 27.8503 6.26694 27.8503C4.58118 26.6883 6.38973 26.6883 6.38973 26.6883C8.25968 26.8139 9.2409 28.6354 9.2409 28.6354C10.896 31.5245 13.5629 30.7082 14.6359 30.2056C14.789 28.9807 15.2798 28.1328 15.8009 27.6618C11.693 27.2221 7.37095 25.5891 7.37095 18.3028C7.37095 16.23 8.10619 14.5342 9.27122 13.2153C9.0874 12.7443 8.4435 10.7968 9.45541 8.19028C9.45541 8.19028 11.0188 7.6877 14.5438 10.1374C16.0529 9.72217 17.6093 9.51095 19.1728 9.50917C20.7361 9.50917 22.3298 9.72924 23.8014 10.1374C27.3268 7.6877 28.8902 8.19028 28.8902 8.19028C29.9021 10.7968 29.2578 12.7443 29.074 13.2153C30.2697 14.5342 30.9746 16.23 30.9746 18.3028C30.9746 25.5891 26.6526 27.1905 22.514 27.6618C23.1886 28.2585 23.7707 29.3889 23.7707 31.1791C23.7707 33.7229 23.7404 35.7644 23.7404 36.3923C23.7404 36.8948 24.0777 37.4918 24.9971 37.3034C32.3541 34.7905 37.6574 27.6931 37.6574 19.308C37.6877 8.81812 29.3806 0.338989 19.1728 0.338989Z" fill="#7ACDC8"/>
</svg>
