<svg width="21" height="20" viewBox="0 0 21 20" fill="none" xmlns="http://www.w3.org/2000/svg">
<path fill-rule="evenodd" clip-rule="evenodd" d="M15.2108 13.1379C17.7054 9.94613 17.4841 5.32125 14.5467 2.38388C11.3699 -0.792916 6.2193 -0.792916 3.04251 2.38388C-0.134286 5.56067 -0.134286 10.7113 3.04251 13.8881C5.97992 16.8255 10.6049 17.0468 13.7966 14.5521L18.9213 19.6768L20.3355 18.2625L15.2108 13.1379ZM13.1325 3.79809C15.5282 6.19383 15.5282 10.0781 13.1325 12.4738C10.7367 14.8696 6.85246 14.8696 4.45672 12.4738C2.06098 10.0781 2.06098 6.19383 4.45672 3.79809C6.85246 1.40235 10.7367 1.40235 13.1325 3.79809Z" fill="#7ACDC8"/>
</svg>
